<svg xmlns="http://www.w3.org/2000/svg" xmlns:xlink="http://www.w3.org/1999/xlink" viewBox="0,0,256,256" width="48px" height="48px" fill-rule="nonzero"><g fill="#ffffff" fill-rule="nonzero" stroke="none" stroke-width="1" stroke-linecap="butt" stroke-linejoin="miter" stroke-miterlimit="10" stroke-dasharray="" stroke-dashoffset="0" font-family="none" font-weight="none" font-size="none" text-anchor="none" style="mix-blend-mode: normal"><g transform="scale(5.33333,5.33333)"><path d="M23.98047,5.62305c-1.65485,0 -3.4949,0.0084 -5.29102,0.02344c-0.54,-0.00155 -1.03916,0.28725 -1.30697,0.75617c-0.26781,0.46892 -0.26293,1.04558 0.01278,1.5099c0.2757,0.46432 0.77968,0.74462 1.31958,0.73394c1.78788,-0.01497 3.62047,-0.02344 5.26563,-0.02344c5.12559,-0.00096 8.64845,0.0395 13.49023,0.20313c0.5297,0.37445 1.60905,1.3539 2.50391,2.41602c0.48473,0.57533 0.92028,1.15323 1.20898,1.59766c0.2887,0.44443 0.33497,0.98112 0.31641,0.42773v1.58008c0,0.56519 -0.28739,1.18881 -0.75195,1.66016c-0.46456,0.47135 -1.07218,0.71875 -1.42969,0.71875c-1.3502,0 -2.35547,-0.93452 -2.35547,-2.15625h-3c0,1.25164 -0.94951,2.15625 -2.29883,2.15625c-1.34884,0 -2.24023,-0.87894 -2.24023,-2.15625c-0.0116,-0.82016 -0.67976,-1.47894 -1.5,-1.47894c-0.82024,0 -1.4884,0.65878 -1.5,1.47894c0,1.19995 -1.05362,2.15625 -2.4043,2.15625h-0.03906c-1.3502,0 -2.40234,-0.95675 -2.40234,-2.15625c-0.0116,-0.82016 -0.67976,-1.47894 -1.5,-1.47894c-0.82024,0 -1.4884,0.65878 -1.5,1.47894c0,1.2787 -0.89151,2.15625 -2.24219,2.15625c-1.3502,0 -2.29687,-0.90552 -2.29688,-2.15625c-0.0116,-0.82016 -0.67976,-1.47894 -1.5,-1.47894c-0.82024,0 -1.4884,0.65878 -1.5,1.47894c0,1.22314 -1.00675,2.15625 -2.35742,2.15625c-0.35831,0 -0.96507,-0.24742 -1.42969,-0.71875c-0.46462,-0.47133 -0.75195,-1.09497 -0.75195,-1.66016v-1.58203c-0.01722,0.54669 0.02702,0.01248 0.3125,-0.43164c0.28548,-0.44412 0.71705,-1.02086 1.19727,-1.5957c0.89079,-1.06633 1.97577,-2.05674 2.49805,-2.42383c0.50761,-0.02991 1.32678,-0.06545 2.60742,-0.0918c0.53595,-0.01109 1.02526,-0.30729 1.28359,-0.77701c0.25833,-0.46972 0.24641,-1.04157 -0.03125,-1.50012c-0.27766,-0.45855 -0.77889,-0.73411 -1.31484,-0.72287c-1.51655,0.0312 -2.62867,0.06333 -3.24609,0.11719c-0.2243,0.01985 -0.44125,0.08995 -0.63477,0.20508c-1.21014,0.7182 -2.37902,1.96972 -3.46484,3.26953c-0.54291,0.6499 -1.03392,1.29904 -1.41797,1.89648c-0.38405,0.59744 -0.75634,0.9203 -0.78906,1.95898c-0.00026,0.01627 -0.00026,0.03255 0,0.04883v1.62891c0,1.49981 0.67686,2.8137 1.61523,3.76563c0.28162,0.28569 0.59844,0.53254 0.92969,0.75586c-0.1178,1.4976 -0.18793,2.91478 -0.20898,3.98438c-0.00011,0.01042 -0.00011,0.02083 0,0.03125v0.00586c-0.00397,0.64251 -0.00678,1.17226 -0.00977,1.9043c-0.00004,0.00651 -0.00004,0.01302 0,0.01953c0.01643,1.84701 -0.07995,4.98406 0.08398,7.95703c0.08197,1.48648 0.22611,2.93645 0.50586,4.22266c0.27975,1.28621 0.63411,2.4387 1.52344,3.3457c0.1996,0.20331 0.45297,0.34558 0.73047,0.41016c0.76811,0.17919 1.64339,0.32932 2.61328,0.45898c0.53851,0.08681 1.08171,-0.12552 1.41859,-0.55452c0.33689,-0.429 0.41436,-1.00705 0.20234,-1.50962c-0.21202,-0.50257 -0.68013,-0.85045 -1.2225,-0.90852c-0.66393,-0.08876 -1.19092,-0.1953 -1.71875,-0.30078c-0.17216,-0.26816 -0.42714,-0.71528 -0.61523,-1.58008c-0.2241,-1.03036 -0.36645,-2.35328 -0.44336,-3.74805c-0.15343,-2.78257 -0.06115,-5.82536 -0.07812,-7.80078v-0.01367c-0.00001,-0.0015 0.00001,-0.00436 0,-0.00586c0.00295,-0.72447 0.00582,-1.25029 0.00977,-1.88672c0.00037,-0.00354 -0.00005,-0.00721 0,-0.00977c0.01737,-0.86825 0.07315,-1.99416 0.1543,-3.17969c1.36729,-0.08006 2.61678,-0.67939 3.53906,-1.60352c0.97513,0.99044 2.32414,1.61914 3.80664,1.61914c1.4771,0 2.8092,-0.62972 3.76953,-1.61719c1.00365,0.99352 2.38476,1.61719 3.875,1.61719h0.03906c1.49095,0 2.87259,-0.6227 3.87695,-1.61719c0.9601,0.98755 2.29057,1.61719 3.76758,1.61719c1.48289,0 2.83319,-0.62769 3.80859,-1.61914c0.99134,0.99303 2.35809,1.61914 3.8457,1.61914c1.39349,0 2.62822,-0.66138 3.56641,-1.61328c0.93819,-0.9519 1.61523,-2.26581 1.61523,-3.76562v-1.62891c0.00029,-0.01693 0.00029,-0.03386 0,-0.05078c-0.03506,-1.04539 -0.41289,-1.36576 -0.80078,-1.96289c-0.38789,-0.59713 -0.88254,-1.24511 -1.42969,-1.89453c-1.0943,-1.29884 -2.2698,-2.54973 -3.47461,-3.26562c-0.21693,-0.12864 -0.46278,-0.20052 -0.71484,-0.20898c-5.16932,-0.18164 -8.77066,-0.21389 -14.09961,-0.21289zM18.10352,23.12305c-0.49,0 -2.45036,0.0028 -3.81836,3.8418l-1.4668,5.26758c-1.088,3.917 0.34667,4.01263 2.13867,4.01563c2.658,-0.099 4.13086,-2.02898 4.13086,-3.95898c1.47,0.241 3.18634,0.36328 4.90234,0.36328c1.716,0 3.4333,-0.12128 4.9043,-0.36328c0,1.929 1.47091,3.86098 4.12891,3.95898c1.791,-0.002 3.22767,-0.09663 2.13867,-4.01562l-1.46875,-5.26758c-1.367,-3.839 -3.32931,-3.83984 -3.82031,-3.83984v0.00195h-0.00195c-1.038,0.003 -1.95856,-0.00186 -3.10156,1.24414c-0.9,-0.094 -1.84025,-0.14162 -2.78125,-0.14062c-0.941,-0.001 -1.88125,0.04663 -2.78125,0.14063c-1.141,-1.247 -2.06552,-1.24605 -3.10352,-1.24805zM40.62109,23.20313c-0.82769,0.01717 -1.48501,0.70159 -1.46875,1.5293c0.001,0.18173 0.00091,0.37247 0.00195,0.58008c-0.01646,1.97453 0.07543,5.01448 -0.07812,7.79688c-0.07697,1.39468 -0.21724,2.71965 -0.44141,3.75c-0.18398,0.84561 -0.43016,1.26675 -0.60352,1.54492c-3.02799,0.61402 -8.47891,0.97077 -14.04102,0.97266c-1.77066,-0.00099 -3.53885,-0.03246 -5.22852,-0.0957c-0.53931,-0.02605 -1.05102,0.23972 -1.33985,0.69592c-0.28883,0.45619 -0.31023,1.03241 -0.05603,1.50876c0.25421,0.47636 0.74479,0.77935 1.28455,0.79337c1.73033,0.06476 3.53255,0.09665 5.33789,0.09766c0.00065,0 0.0013,0 0.00195,0c0.00065,0 0.0013,0 0.00195,0c5.95811,-0.002 11.82373,-0.30978 15.31836,-1.12305c0.27842,-0.06478 0.53253,-0.20776 0.73242,-0.41211c0.88929,-0.90696 1.24361,-2.05952 1.52344,-3.3457c0.27983,-1.28618 0.42383,-2.73426 0.50586,-4.2207c0.16406,-2.97289 0.06608,-6.11011 0.08203,-7.95703c0.00005,-0.00716 0.00005,-0.01432 0,-0.02148c-0.001,-0.20839 -0.00091,-0.39976 -0.00195,-0.58203c0.00321,-0.40531 -0.15772,-0.79468 -0.44617,-1.07945c-0.28844,-0.28476 -0.67984,-0.44069 -1.08508,-0.43227zM23.98633,25.73047c0,0 2.98063,2.73794 3.51563,3.71094l-1.87891,-0.07812v1.88867c0,0.08 -3.2793,0.08 -3.2793,0v-1.88867l-1.87305,0.07813c0.535,-0.973 3.51363,-3.70794 3.51563,-3.71094z"></path></g></g></svg>